<?xml version="1.0" encoding="utf-8"?>
<svg version="1.1" xmlns="http://www.w3.org/2000/svg" viewBox="745.3 574.2 140 144">
<style type="text/css">
	.st1{fill:#FFFFFF;}
	.st0{fill:#1B2638;}
</style>
<g>
	<path class="st1" d="M822.3,615.7v27c0,4.2-3.4,7.7-7.7,7.7h-26.8v26.8c0,4.2-3.4,7.7-7.7,7.7h-27c-4.2,0-7.7-3.4-7.7-7.7v-26.8
		h-26.8c-4.2,0-7.7-3.4-7.7-7.7v-27c0-4.2,3.4-7.7,7.7-7.7h26.8v-26.8c0-4.2,3.4-7.7,7.7-7.7h27c4.2,0,7.7,3.4,7.7,7.7v26.8h26.8
		C818.9,608.1,822.3,611.5,822.3,615.7z"/>
	<path class="st0" d="M776.7,601.3h-20c-1.3,0-2-1.4-1.4-2.4l10-16.3c0.6-1,2.1-1,2.7,0l10,16.3
		C778.7,599.9,777.9,601.3,776.7,601.3z"/>
</g>
</svg>
