<?xml version="1.0" encoding="utf-8"?>
<svg version="1.1" xmlns="http://www.w3.org/2000/svg" viewBox="1023.8 574.2 140 144">
<style type="text/css">
	.st1{fill:#FFFFFF;}
	.st0{fill:#1B2638;}
</style>
<g>
	<path class="st1" d="M1101.2,615.7v27c0,4.2-3.4,7.7-7.7,7.7h-26.8v26.8c0,4.2-3.4,7.7-7.7,7.7h-27c-4.2,0-7.7-3.4-7.7-7.7v-26.8
		h-26.8c-4.2,0-7.7-3.4-7.7-7.7v-27c0-4.2,3.4-7.7,7.7-7.7h26.8v-26.8c0-4.2,3.4-7.7,7.7-7.7h27c4.2,0,7.7,3.4,7.7,7.7v26.8h26.8
		C1097.7,608.1,1101.2,611.5,1101.2,615.7z"/>
	<path class="st0" d="M1056.9,659.6l-10,16.3c-0.6,1-2.1,1-2.7,0l-10-16.3c-0.7-1.1,0.1-2.4,1.4-2.4h20
		C1056.8,657.2,1057.6,658.6,1056.9,659.6z"/>
</g>
</svg>
