<?xml version="1.0" encoding="utf-8"?>
<svg version="1.1" xmlns="http://www.w3.org/2000/svg" viewBox="1129.3 574.2 140 144">
<style type="text/css">
	.st1{fill:#FFFFFF;}
	.st0{fill:#1B2638;}
</style>
<g>
	<path class="st1" d="M1240.6,615.7v27c0,4.2-3.4,7.7-7.7,7.7h-26.8v26.8c0,4.2-3.4,7.7-7.7,7.7h-27c-4.2,0-7.7-3.4-7.7-7.7v-26.8
		H1137c-4.2,0-7.7-3.4-7.7-7.7v-27c0-4.2,3.4-7.7,7.7-7.7h26.8v-26.8c0-4.2,3.4-7.7,7.7-7.7h27c4.2,0,7.7,3.4,7.7,7.7v26.8h26.8
		C1237.2,608.1,1240.6,611.5,1240.6,615.7z"/>
	<path class="st0" d="M1157,619.2v20c0,1.3-1.4,2-2.4,1.4l-16.3-10c-1-0.6-1-2.1,0-2.7l16.3-10C1155.6,617.2,1157,618,1157,619.2z"
		/>
</g>
</svg>
