<?xml version="1.0" encoding="utf-8"?>
<svg version="1.1" xmlns="http://www.w3.org/2000/svg" viewBox="884.3 574.1 140 144">
<style type="text/css">
	.st1{fill:#FFFFFF;}
	.st0{fill:#1B2638;}
</style>
<g>
	<path class="st1" d="M961.7,615.7v27c0,4.2-3.4,7.7-7.7,7.7h-26.8v26.8c0,4.2-3.4,7.7-7.7,7.7h-27c-4.2,0-7.7-3.4-7.7-7.7v-26.8
		h-26.8c-4.2,0-7.7-3.4-7.7-7.7v-27c0-4.2,3.4-7.7,7.7-7.7h26.8v-26.8c0-4.2,3.4-7.7,7.7-7.7h27c4.2,0,7.7,3.4,7.7,7.7v26.8h26.8
		C958.3,608.1,961.7,611.5,961.7,615.7z"/>
	<path class="st0" d="M952.8,630.6l-16.3,10c-1.1,0.7-2.4-0.1-2.4-1.4v-20c0-1.3,1.4-2,2.4-1.4l16.3,10
		C953.8,628.5,953.8,630,952.8,630.6z"/>
</g>
</svg>
