<?xml version="1.0" encoding="utf-8"?>
<svg version="1.1" xmlns="http://www.w3.org/2000/svg" viewBox="792.3 797.8 104.7 143.1">
<style type="text/css">
	.st1{fill:#FFFFFF;}
	.st0{fill:#1B2638;}
	.st5{fill:none;}
</style>
<g>
	<polygon class="st5" points="843.3,827.1 836.6,827.1 836.6,870.2 854.5,870.2 854.5,864 843.3,864 		"/>
	<path class="st1" d="M844.6,797.8c-28.9,0-52.3,23.4-52.3,52.3c0,28.9,23.4,52.4,52.3,52.4c28.9,0,52.4-23.4,52.4-52.4
		C897,821.3,873.5,797.8,844.6,797.8z M854.5,870.2h-17.9v-43h6.8V864h11.1V870.2z"/>
	<polygon class="st1" points="819.5,940.6 869.7,940.6 844.6,908.6 		"/>
	<polygon class="st0" points="854.5,864 854.5,870.2 836.6,870.2 836.6,827.1 843.3,827.1 843.3,864 		"/>
</g>
</svg>
