<?xml version="1.0" encoding="utf-8"?>
<svg version="1.1" xmlns="http://www.w3.org/2000/svg" viewBox="584.3 797.8 104.6 143.1">
<style type="text/css">
	.st1{fill:#FFFFFF;}
	.st0{fill:#1B2638;}
	.st5{fill:none;}
</style>
<g>
	<polygon class="st5" points="635.8,865.2 629,865.2 629,908.3 646.9,908.3 646.9,902.1 635.8,902.1 		"/>
	<path class="st1" d="M636.7,835.9c-28.9,0-52.4,23.4-52.4,52.4c0,28.9,23.4,52.3,52.4,52.3c28.9,0,52.3-23.4,52.3-52.3
		C689,859.4,665.6,835.9,636.7,835.9z M646.9,908.3H629v-43h6.8v36.9h11.1V908.3z"/>
	<polygon class="st1" points="661.8,797.8 611.6,797.8 636.7,829.8 		"/>
	<polygon class="st0" points="646.9,902.1 646.9,908.3 629,908.3 629,865.2 635.8,865.2 635.8,902.1 		"/>
</g>
</svg>
