<?xml version="1.0" encoding="utf-8"?>
<svg version="1.1" xmlns="http://www.w3.org/2000/svg" viewBox="792.3 1028.2 104.7 143">
<style type="text/css">
	.st1{fill:#FFFFFF;}
	.st0{fill:#1B2638;}
</style>
<g>
	<path class="st1" d="M844.6,1028.2c-28.9,0-52.3,23.4-52.3,52.3s23.4,52.3,52.3,52.3c28.9,0,52.4-23.4,52.4-52.3
		S873.5,1028.2,844.6,1028.2z"/>
	<polygon class="st1" points="819.5,1171 869.7,1171 844.6,1139 		"/>
	<path class="st0" d="M855,1098.3c-0.1-0.8-0.1-1.8-0.1-3v-7.6c0-2.5-0.3-4.6-1-6.1c-0.7-1.5-1.8-2.5-3.5-3v-0.1
		c3-1.2,4.4-4,4.4-8.5v-2.6c0-3.4-0.8-5.9-2.4-7.5c-1.6-1.6-4.1-2.4-7.6-2.4h-10v43h6.8v-18.4h2.3c1.6,0,2.7,0.4,3.3,1.2
		c0.6,0.8,1,2.1,1,4.1v7.9c0,1.6,0,2.7,0.1,3.3c0.1,0.6,0.2,1.3,0.5,2h6.9C855.3,1099.8,855.1,1099.1,855,1098.3z M848,1071.4
		c0,1.6-0.3,2.8-1,3.5c-0.7,0.7-1.7,1.1-3,1.1h-2.5v-12.3h3.1c1.2,0,2.1,0.4,2.6,1c0.6,0.7,0.8,1.8,0.8,3.4V1071.4z"/>
</g>
</svg>
