<?xml version="1.0" encoding="utf-8"?>
<svg version="1.1" xmlns="http://www.w3.org/2000/svg" viewBox="124.4 557.7 126 81.5">
<style type="text/css">
	.st1{fill:#FFFFFF;}
	.st0{fill:#1B2638;}
</style>
<g>
	<path class="st1" d="M250.4,557.7v80.9c-42,18.8-84,18.8-126,0v-80.9H250.4z"/>
	<path class="st0" d="M197.1,617.4h12.8v6.1h-19.5v-4.7c0-3.1,0.5-5.7,1.5-7.9c1-2.2,2.7-4.6,5.3-7.3c2.5-2.7,4.2-4.9,5.2-6.8
		c1-1.9,1.5-3.8,1.5-5.9c0-1.9-0.3-3.1-0.9-3.8c-0.6-0.7-1.5-1.1-2.6-1.1c-2.3,0-3.5,1.4-3.5,4.2v4.6h-6.4v-4.2
		c0-3.5,0.9-6.2,2.6-8c1.7-1.9,4.2-2.8,7.5-2.8c3.3,0,5.8,0.9,7.5,2.8c1.7,1.9,2.6,4.5,2.6,8c0,2.6-0.6,5.2-1.9,7.7
		c-1.3,2.5-3.4,5.4-6.5,8.6c-2,2.1-3.4,3.9-4.1,5.2c-0.7,1.3-1,2.8-1,4.3V617.4z"/>
	<polygon class="st0" points="182.6,617.4 182.6,623.5 164.7,623.5 164.7,580.5 171.5,580.5 171.5,617.4 		"/>
</g>
</svg>
