<?xml version="1.0" encoding="utf-8"?>
<svg version="1.1" xmlns="http://www.w3.org/2000/svg" viewBox="124.4 180.4 126 81">
<style type="text/css">
	.st1{fill:#FFFFFF;}
	.st0{fill:#1B2638;}
</style>
<g>
	<path class="st1" d="M203.8,208.4v2.4c0,1.6-0.3,2.8-1,3.5c-0.7,0.7-1.7,1-3,1h-2.6V204h3.3c1.2,0,2.1,0.3,2.6,1
		C203.5,205.7,203.8,206.8,203.8,208.4z"/>
	<path class="st1" d="M204.5,226.7v3.8c0,1.5-0.3,2.6-0.9,3.3c-0.6,0.6-1.5,1-2.7,1h-3.9v-13.2h3c1.6,0,2.7,0.4,3.3,1.1
		C204.2,223.4,204.5,224.8,204.5,226.7z"/>
	<path class="st1" d="M206.2,218v-0.1c1.5-0.6,2.6-1.6,3.3-3c0.7-1.4,1.1-3.2,1.1-5.4v-1.7c0-3.4-0.8-5.8-2.4-7.5
		c-1.6-1.6-4.1-2.4-7.6-2.4h-10.2v43H201c3.4,0,5.9-0.9,7.7-2.6c1.7-1.7,2.6-4.3,2.6-7.6V227C211.3,222.1,209.6,219.1,206.2,218z
		 M197.1,204h3.3c1.2,0,2.1,0.3,2.6,1c0.5,0.7,0.8,1.8,0.8,3.4v2.4c0,1.6-0.3,2.8-1,3.5c-0.7,0.7-1.7,1-3,1h-2.6V204z M204.5,230.5
		c0,1.5-0.3,2.6-0.9,3.3c-0.6,0.6-1.5,1-2.7,1h-3.9v-13.2h3c1.6,0,2.7,0.4,3.3,1.1c0.7,0.8,1,2.1,1,4.1V230.5z"/>
	<polygon class="st1" points="182.5,234.7 182.5,240.9 164.6,240.9 164.6,197.8 171.4,197.8 171.4,234.7 		"/>
</g>
</svg>
