<?xml version="1.0" encoding="utf-8"?>
<svg version="1.1" xmlns="http://www.w3.org/2000/svg" viewBox="1346.8 299.6 117 117">
<style type="text/css">
	.st1{fill:#FFFFFF;}
	.st0{fill:#1B2638;}
</style>
<g>
	<path class="st1" d="M1463.8,358c0,32.3-26.2,58.5-58.4,58.5c-32.3,0-58.5-26.2-58.5-58.5c0-32.3,26.2-58.5,58.5-58.5
		C1437.6,299.6,1463.8,325.8,1463.8,358z"/>
	<path class="st0" d="M1405.3,314.1c-24.3,0-44,19.7-44,44c0,24.3,19.7,44,44,44c24.3,0,44-19.7,44-44
		C1449.3,333.7,1429.6,314.1,1405.3,314.1z M1405.3,390.2c-17.8,0-32.2-14.4-32.2-32.2c0-17.8,14.4-32.2,32.2-32.2
		c17.8,0,32.2,14.4,32.2,32.2C1437.5,375.8,1423.1,390.2,1405.3,390.2z"/>
	<path class="st1" d="M1437.5,358c0,17.8-14.4,32.2-32.2,32.2c-17.8,0-32.2-14.4-32.2-32.2c0-17.8,14.4-32.2,32.2-32.2
		C1423.1,325.9,1437.5,340.3,1437.5,358z"/>
</g>
</svg>
