<?xml version="1.0" encoding="utf-8"?>
<svg version="1.1" xmlns="http://www.w3.org/2000/svg" viewBox="1187.5 299.6 116.8 117">
<style type="text/css">
	.st1{fill:#FFFFFF;}
	.st0{fill:#1B2638;}
</style>
<g>
	<path class="st1" d="M1304.3,356.1c1.1,33.8-26.5,61.4-60.3,60.4c-30.6-1-55.6-25.9-56.5-56.5c-1.1-33.8,26.5-61.4,60.3-60.4
		C1278.4,300.6,1303.3,325.5,1304.3,356.1z"/>
	<path class="st0" d="M1283.2,377.6l-34.9-60.5c-1-1.7-3.5-1.7-4.5,0l-34.9,60.5c-1,1.7,0.3,3.9,2.3,3.9h69.9
		C1282.9,381.5,1284.2,379.3,1283.2,377.6z M1261.6,370.4h-31.4c-1.5,0-2.4-1.6-1.7-2.9l15.7-28.1c0.8-1.3,2.7-1.3,3.4,0l15.7,28.2
		C1264.1,368.8,1263.1,370.4,1261.6,370.4z"/>
	<path class="st1" d="M1261.6,370.4h-31.4c-1.5,0-2.4-1.6-1.7-2.9l15.7-28.1c0.8-1.3,2.7-1.3,3.4,0l15.7,28.2
		C1264.1,368.8,1263.1,370.4,1261.6,370.4z"/>
</g>
</svg>
